<?xml version="1.0" encoding="UTF-8" standalone="no"?>
<!DOCTYPE svg PUBLIC "-//W3C//DTD SVG 1.1//EN"
 "http://www.w3.org/Graphics/SVG/1.1/DTD/svg11.dtd">
<!-- Generated by graphviz version 12.1.2 (20240928.0832)
 -->
<!-- Pages: 1 -->
<svg width="815pt" height="128pt"
 viewBox="0.00 0.00 814.75 128.00" xmlns="http://www.w3.org/2000/svg" xmlns:xlink="http://www.w3.org/1999/xlink">
<g id="graph0" class="graph" transform="scale(1 1) rotate(0) translate(4 124)">
<polygon fill="white" stroke="none" points="-4,4 -4,-124 810.75,-124 810.75,4 -4,4"/>
<!-- 4333565504 -->
<g id="node1" class="node">
<title>4333565504</title>
<polygon fill="none" stroke="black" points="233,-83.5 233,-119.5 341.5,-119.5 341.5,-83.5 233,-83.5"/>
<text text-anchor="middle" x="244" y="-96.7" font-family="Times,serif" font-size="14.00">c</text>
<polyline fill="none" stroke="black" points="255,-84 255,-119.5"/>
<text text-anchor="middle" x="298.25" y="-96.7" font-family="Times,serif" font-size="14.00">data 10.0000</text>
</g>
<!-- 4333565264+ -->
<g id="node9" class="node">
<title>4333565264+</title>
<ellipse fill="none" stroke="black" cx="404.5" cy="-73.5" rx="27" ry="18"/>
<text text-anchor="middle" x="404.5" y="-68.45" font-family="Times,serif" font-size="14.00">+</text>
</g>
<!-- 4333565504&#45;&gt;4333565264+ -->
<g id="edge5" class="edge">
<title>4333565504&#45;&gt;4333565264+</title>
<path fill="none" stroke="black" d="M341.83,-88.48C350.54,-86.37 359.37,-84.22 367.53,-82.24"/>
<polygon fill="black" stroke="black" points="368.16,-85.69 377.05,-79.93 366.51,-78.89 368.16,-85.69"/>
</g>
<!-- 4333565552 -->
<g id="node2" class="node">
<title>4333565552</title>
<polygon fill="none" stroke="black" points="0,-56.5 0,-92.5 107,-92.5 107,-56.5 0,-56.5"/>
<text text-anchor="middle" x="11.38" y="-69.7" font-family="Times,serif" font-size="14.00">b</text>
<polyline fill="none" stroke="black" points="22.75,-57 22.75,-92.5"/>
<text text-anchor="middle" x="64.88" y="-69.7" font-family="Times,serif" font-size="14.00">data &#45;3.0000</text>
</g>
<!-- 4333565168* -->
<g id="node7" class="node">
<title>4333565168*</title>
<ellipse fill="none" stroke="black" cx="170" cy="-46.5" rx="27" ry="18"/>
<text text-anchor="middle" x="170" y="-41.45" font-family="Times,serif" font-size="14.00">*</text>
</g>
<!-- 4333565552&#45;&gt;4333565168* -->
<g id="edge8" class="edge">
<title>4333565552&#45;&gt;4333565168*</title>
<path fill="none" stroke="black" d="M107.39,-61.57C116.15,-59.42 125.05,-57.25 133.26,-55.24"/>
<polygon fill="black" stroke="black" points="133.97,-58.67 142.85,-52.89 132.3,-51.87 133.97,-58.67"/>
</g>
<!-- 4341027984 -->
<g id="node3" class="node">
<title>4341027984</title>
<polygon fill="none" stroke="black" points="467.5,-0.5 467.5,-36.5 572.25,-36.5 572.25,-0.5 467.5,-0.5"/>
<text text-anchor="middle" x="477.75" y="-13.7" font-family="Times,serif" font-size="14.00">f</text>
<polyline fill="none" stroke="black" points="488,-1 488,-36.5"/>
<text text-anchor="middle" x="530.12" y="-13.7" font-family="Times,serif" font-size="14.00">data &#45;2.0000</text>
</g>
<!-- 4341028032* -->
<g id="node5" class="node">
<title>4341028032*</title>
<ellipse fill="none" stroke="black" cx="635.25" cy="-45.5" rx="27" ry="18"/>
<text text-anchor="middle" x="635.25" y="-40.45" font-family="Times,serif" font-size="14.00">*</text>
</g>
<!-- 4341027984&#45;&gt;4341028032* -->
<g id="edge6" class="edge">
<title>4341027984&#45;&gt;4341028032*</title>
<path fill="none" stroke="black" d="M572.59,-30.81C581.32,-32.89 590.21,-35.01 598.42,-36.97"/>
<polygon fill="black" stroke="black" points="597.48,-40.34 608.02,-39.25 599.1,-33.53 597.48,-40.34"/>
</g>
<!-- 4341028032 -->
<g id="node4" class="node">
<title>4341028032</title>
<polygon fill="none" stroke="black" points="698.25,-27.5 698.25,-63.5 806.75,-63.5 806.75,-27.5 698.25,-27.5"/>
<text text-anchor="middle" x="710.38" y="-40.7" font-family="Times,serif" font-size="14.00">L</text>
<polyline fill="none" stroke="black" points="722.5,-28 722.5,-63.5"/>
<text text-anchor="middle" x="764.62" y="-40.7" font-family="Times,serif" font-size="14.00">data &#45;8.0000</text>
</g>
<!-- 4341028032*&#45;&gt;4341028032 -->
<g id="edge1" class="edge">
<title>4341028032*&#45;&gt;4341028032</title>
<path fill="none" stroke="black" d="M662.69,-45.5C669.91,-45.5 678.06,-45.5 686.43,-45.5"/>
<polygon fill="black" stroke="black" points="686.39,-49 696.39,-45.5 686.39,-42 686.39,-49"/>
</g>
<!-- 4333565168 -->
<g id="node6" class="node">
<title>4333565168</title>
<polygon fill="none" stroke="black" points="234.12,-28.5 234.12,-64.5 340.38,-64.5 340.38,-28.5 234.12,-28.5"/>
<text text-anchor="middle" x="245.12" y="-41.7" font-family="Times,serif" font-size="14.00">e</text>
<polyline fill="none" stroke="black" points="256.12,-29 256.12,-64.5"/>
<text text-anchor="middle" x="298.25" y="-41.7" font-family="Times,serif" font-size="14.00">data &#45;6.0000</text>
</g>
<!-- 4333565168&#45;&gt;4333565264+ -->
<g id="edge7" class="edge">
<title>4333565168&#45;&gt;4333565264+</title>
<path fill="none" stroke="black" d="M340.82,-58.81C349.88,-60.94 359.11,-63.1 367.6,-65.09"/>
<polygon fill="black" stroke="black" points="366.63,-68.46 377.16,-67.33 368.22,-61.64 366.63,-68.46"/>
</g>
<!-- 4333565168*&#45;&gt;4333565168 -->
<g id="edge2" class="edge">
<title>4333565168*&#45;&gt;4333565168</title>
<path fill="none" stroke="black" d="M197.44,-46.5C205.1,-46.5 213.82,-46.5 222.73,-46.5"/>
<polygon fill="black" stroke="black" points="222.53,-50 232.53,-46.5 222.53,-43 222.53,-50"/>
</g>
<!-- 4333565264 -->
<g id="node8" class="node">
<title>4333565264</title>
<polygon fill="none" stroke="black" points="468.62,-55.5 468.62,-91.5 571.12,-91.5 571.12,-55.5 468.62,-55.5"/>
<text text-anchor="middle" x="480" y="-68.7" font-family="Times,serif" font-size="14.00">d</text>
<polyline fill="none" stroke="black" points="491.38,-56 491.38,-91.5"/>
<text text-anchor="middle" x="531.25" y="-68.7" font-family="Times,serif" font-size="14.00">data 4.0000</text>
</g>
<!-- 4333565264&#45;&gt;4341028032* -->
<g id="edge4" class="edge">
<title>4333565264&#45;&gt;4341028032*</title>
<path fill="none" stroke="black" d="M571.59,-60.97C580.67,-58.73 589.96,-56.44 598.51,-54.33"/>
<polygon fill="black" stroke="black" points="599.28,-57.74 608.14,-51.95 597.6,-50.95 599.28,-57.74"/>
</g>
<!-- 4333565264+&#45;&gt;4333565264 -->
<g id="edge3" class="edge">
<title>4333565264+&#45;&gt;4333565264</title>
<path fill="none" stroke="black" d="M431.8,-73.5C439.43,-73.5 448.11,-73.5 456.96,-73.5"/>
<polygon fill="black" stroke="black" points="456.68,-77 466.68,-73.5 456.68,-70 456.68,-77"/>
</g>
<!-- 4333566368 -->
<g id="node10" class="node">
<title>4333566368</title>
<polygon fill="none" stroke="black" points="2.62,-1.5 2.62,-37.5 104.38,-37.5 104.38,-1.5 2.62,-1.5"/>
<text text-anchor="middle" x="13.62" y="-14.7" font-family="Times,serif" font-size="14.00">a</text>
<polyline fill="none" stroke="black" points="24.62,-2 24.62,-37.5"/>
<text text-anchor="middle" x="64.5" y="-14.7" font-family="Times,serif" font-size="14.00">data 2.0000</text>
</g>
<!-- 4333566368&#45;&gt;4333565168* -->
<g id="edge9" class="edge">
<title>4333566368&#45;&gt;4333565168*</title>
<path fill="none" stroke="black" d="M104.72,-31.34C114.16,-33.57 123.86,-35.86 132.78,-37.96"/>
<polygon fill="black" stroke="black" points="131.94,-41.36 142.48,-40.25 133.55,-34.54 131.94,-41.36"/>
</g>
</g>
</svg>
